<?xml version="1.0" encoding="utf-8"?>
<!-- Generator: Adobe Illustrator 16.0.0, SVG Export Plug-In . SVG Version: 6.00 Build 0)  -->
<!DOCTYPE svg PUBLIC "-//W3C//DTD SVG 1.1//EN" "http://www.w3.org/Graphics/SVG/1.1/DTD/svg11.dtd">
<svg version="1.1" id="图层_1" xmlns="http://www.w3.org/2000/svg" xmlns:xlink="http://www.w3.org/1999/xlink" x="0px" y="0px"
	 width="161.57px" height="42.52px" viewBox="0 0 161.57 42.52" enable-background="new 0 0 161.57 42.52" xml:space="preserve">
<g>
	
		<linearGradient id="SVGID_1_" gradientUnits="userSpaceOnUse" x1="0.623" y1="20.7554" x2="37.5371" y2="20.7554" gradientTransform="matrix(1 0 0 -1 0.04 42.0645)">
		<stop  offset="0" style="stop-color:#00A0E9"/>
		<stop  offset="0.2398" style="stop-color:#009CE6"/>
		<stop  offset="0.4643" style="stop-color:#036EB8"/>
		<stop  offset="0.9082" style="stop-color:#E4007F"/>
	</linearGradient>
	<path fill="url(#SVGID_1_)" d="M35.601,8.833c-1.953-0.667-5.8-1.934-7.743-2.899c-3.884-1.932-5.351-3.246-6.797-4.347
		c-0.51-0.39-1.214-0.581-1.921-0.581c-0.007,0-0.013,0-0.02,0c-0.006,0-0.013,0-0.02,0c-0.707,0-1.41,0.19-1.921,0.581
		c-1.445,1.102-2.913,2.416-6.797,4.347C8.44,6.899,4.592,8.166,2.64,8.833c-1.262,0.431-2.077,1.566-1.967,2.898
		c0.338,4.12,1.353,12.353,3.883,17.392C7.469,34.919,14.773,39.458,17.664,41.2c0.457,0.274,0.956,0.412,1.456,0.412
		s0.999-0.138,1.456-0.412c2.89-1.742,10.195-6.281,13.108-12.077c2.533-5.039,3.545-13.271,3.884-17.392
		C37.677,10.399,36.864,9.264,35.601,8.833z M35.728,11.58c-0.214,2.626-1.118,11.589-3.693,16.713
		c-1.838,3.66-6.015,7.471-12.411,11.324c-0.163,0.099-0.333,0.147-0.503,0.147c-0.171,0-0.34-0.05-0.503-0.147
		c-6.396-3.854-10.571-7.664-12.411-11.324C3.632,23.169,2.729,14.206,2.514,11.58c-0.056-0.68,0.54-0.938,0.723-1l0.701-0.238
		c2.161-0.732,5.428-1.839,7.269-2.755c3.533-1.757,5.193-3.053,6.525-4.093c0.193-0.151,0.381-0.297,0.567-0.44
		c0.116-0.087,0.371-0.188,0.728-0.202l0.01,0.001l0.102-0.001h0.049c0.371,0.008,0.637,0.112,0.755,0.202
		c0.188,0.144,0.375,0.289,0.568,0.44c1.333,1.04,2.993,2.335,6.526,4.093c1.84,0.916,5.106,2.021,7.267,2.755l0.701,0.238
		C35.188,10.643,35.785,10.9,35.728,11.58z"/>
	<g>
		
			<linearGradient id="SVGID_2_" gradientUnits="userSpaceOnUse" x1="7.1841" y1="24.0684" x2="30.9766" y2="24.0684" gradientTransform="matrix(1 0 0 -1 0.04 42.0645)">
			<stop  offset="0" style="stop-color:#00A0E9"/>
			<stop  offset="0.2398" style="stop-color:#009CE6"/>
			<stop  offset="0.4643" style="stop-color:#036EB8"/>
			<stop  offset="0.9082" style="stop-color:#E4007F"/>
		</linearGradient>
		<path fill="url(#SVGID_2_)" d="M28.313,11.59H7.765c-0.242,0-0.457,0.162-0.521,0.396c-0.065,0.236,0.034,0.484,0.243,0.609
			l5.408,3.245c0.256,0.155,0.586,0.07,0.742-0.188c0.153-0.254,0.07-0.588-0.187-0.74l-3.733-2.24h18.597
			c0.896,0,1.622,0.728,1.622,1.623v1.989h-6.299v7.717l-2.697-7.715h-2.426l-2.652,7.565l1.147-7.565h-1.873l-0.865,5.689
			l-1.009-5.548h-1.73l-1.007,5.495l-0.856-5.637H7.794l1.222,8.117h2.586l0.785-4.282l0.794,4.282h2.486h0.109h1.934l0.829-2.641
			h2.364l0.847,2.641h1.885h0.14h1.894v-3.859h3.987v-0.648h-3.987v-2.962h4.265v2.771c0,0.297,0.243,0.539,0.541,0.539
			c0.299,0,0.541-0.242,0.541-0.539v-5.408C31.018,12.803,29.807,11.59,28.313,11.59z M18.756,21.11l0.963-3.051l0.98,3.051H18.756z
			"/>
		
			<linearGradient id="SVGID_3_" gradientUnits="userSpaceOnUse" x1="7.1836" y1="17.3184" x2="30.9775" y2="17.3184" gradientTransform="matrix(1 0 0 -1 0.04 42.0645)">
			<stop  offset="0" style="stop-color:#00A0E9"/>
			<stop  offset="0.2398" style="stop-color:#009CE6"/>
			<stop  offset="0.4643" style="stop-color:#036EB8"/>
			<stop  offset="0.9082" style="stop-color:#E4007F"/>
		</linearGradient>
		<path fill="url(#SVGID_3_)" d="M30.756,28.064l-5.407-3.243c-0.256-0.153-0.589-0.068-0.742,0.188
			c-0.155,0.254-0.071,0.588,0.185,0.742l3.733,2.239H9.928c-0.894,0-1.623-0.729-1.623-1.622V20.96c0-0.298-0.241-0.54-0.54-0.54
			s-0.541,0.242-0.541,0.54v5.408c0,1.489,1.213,2.704,2.704,2.704h20.548c0.244,0,0.458-0.163,0.522-0.396
			C31.063,28.441,30.964,28.193,30.756,28.064z"/>
	</g>
</g>
<g>
	<g>
		<path fill="#FF0098" d="M57.346,9.48C50.425,9.816,45.827,13.6,43.555,20.833c-1.464,6.966,1.098,10.648,7.688,11.051
			c6.855-0.337,11.39-4.019,13.61-11.051C66.303,13.667,63.801,9.882,57.346,9.48z M61.236,20.833
			c-1.679,5.761-4.821,8.741-9.429,8.941c-4.399-0.335-5.942-3.314-4.636-8.941c1.774-5.626,4.959-8.641,9.555-9.042
			C61.075,12.06,62.578,15.072,61.236,20.833z"/>
		<path fill="#FF0098" d="M72.225,17.547h-5.966l-5.25,19.59h3.028l1.408-5.253h3.028c4.809,0,7.849-2.374,9.122-7.124
			C78.941,19.952,77.152,17.547,72.225,17.547z M74.389,24.76c-0.938,3.503-2.981,5.254-6.128,5.254h-2.314l2.791-10.419h2.315
			C74.2,19.595,75.311,21.317,74.389,24.76z"/>
		<path fill="#FF0098" d="M84.539,30.014c-3.012-0.059-4.284-1.514-3.818-4.364h10.865c1.521-5.461-0.1-8.161-4.863-8.103
			c-4.621,0.179-7.626,2.642-9.016,7.391c-1.015,4.452,0.858,6.769,5.62,6.946c2.908,0,5.27-0.832,7.08-2.494l0.598-2.226
			C88.889,29.064,86.734,30.014,84.539,30.014z M86.262,19.595c2.461,0.12,3.408,1.456,2.846,4.008h-7.749
			C82.355,20.989,83.99,19.654,86.262,19.595z"/>
		<path fill="#FF0098" d="M101.754,17.547h-7.035l-3.746,13.981h3.117l3.197-11.934h3.117c2.254,0,3.064,1.188,2.43,3.563
			l-2.244,8.369h3.027l2.34-8.728C106.969,19.238,105.568,17.488,101.754,17.547z"/>
		<polygon fill="#FF0098" points="129.287,12.293 121.521,28.322 121.809,12.293 118.246,12.293 109.945,28.322 110.676,12.293 
			107.471,12.293 107.125,31.528 110.777,31.528 119.002,16.122 118.969,31.528 122.441,31.528 132.496,12.293 		"/>
		<path fill="#FF0098" d="M135.764,12.293l-12.813,19.235h3.297l3.432-5.165h8.371l0.574,5.165h3.385l-2.506-19.235H135.764z
			 M130.939,24.314l5.906-9.083l0.951,9.083H130.939z"/>
		<polygon fill="#FF0098" points="160.221,14.342 160.77,12.293 147.322,12.293 142.168,31.528 145.287,31.528 147.6,22.889 
			157.395,22.889 157.922,20.931 148.125,20.931 149.891,14.342 		"/>
	</g>
</g>
</svg>
